<svg width="32" height="32" viewBox="0 0 32 32" fill="none" xmlns="http://www.w3.org/2000/svg">
<g id="Pern Logo">
<path id="Vector" d="M21.3661 18.4615C21.4646 17.6492 21.5384 16.8369 21.5384 16C21.5384 15.163 21.4646 14.3507 21.3661 13.5384H25.5261C25.723 14.3261 25.8461 15.1507 25.8461 16C25.8461 16.8492 25.723 17.6738 25.5261 18.4615M19.1876 25.3046C19.9261 23.9384 20.4923 22.4615 20.8861 20.923H24.5169C23.3245 22.9763 21.4327 24.5316 19.1876 25.3046ZM18.88 18.4615H13.12C12.9969 17.6492 12.923 16.8369 12.923 16C12.923 15.163 12.9969 14.3384 13.12 13.5384H18.88C18.9907 14.3384 19.0769 15.163 19.0769 16C19.0769 16.8369 18.9907 17.6492 18.88 18.4615ZM16 25.7969C14.9784 24.32 14.1538 22.683 13.6492 20.923H18.3507C17.8461 22.683 17.0215 24.32 16 25.7969ZM11.0769 11.0769H7.48303C8.66316 9.01806 10.5535 7.46024 12.8 6.69534C12.0615 8.06149 11.5076 9.53841 11.0769 11.0769ZM7.48303 20.923H11.0769C11.5076 22.4615 12.0615 23.9384 12.8 25.3046C10.5583 24.5312 8.67053 22.9756 7.48303 20.923ZM6.4738 18.4615C6.27688 17.6738 6.1538 16.8492 6.1538 16C6.1538 15.1507 6.27688 14.3261 6.4738 13.5384H10.6338C10.5353 14.3507 10.4615 15.163 10.4615 16C10.4615 16.8369 10.5353 17.6492 10.6338 18.4615M16 6.19072C17.0215 7.66765 17.8461 9.31688 18.3507 11.0769H13.6492C14.1538 9.31688 14.9784 7.66765 16 6.19072ZM24.5169 11.0769H20.8861C20.5009 9.55252 19.9305 8.08106 19.1876 6.69534C21.4523 7.47072 23.3353 9.0338 24.5169 11.0769ZM16 3.69226C9.1938 3.69226 3.69226 9.23072 3.69226 16C3.69226 19.2642 4.98896 22.3947 7.2971 24.7028C8.43997 25.8457 9.79676 26.7523 11.29 27.3708C12.7832 27.9893 14.3837 28.3076 16 28.3076C19.2642 28.3076 22.3947 27.0109 24.7028 24.7028C27.0109 22.3947 28.3076 19.2642 28.3076 16C28.3076 14.3837 27.9893 12.7832 27.3708 11.29C26.7523 9.79676 25.8457 8.43997 24.7028 7.2971C23.5599 6.15423 22.2031 5.24765 20.7099 4.62913C19.2167 4.01061 17.6162 3.69226 16 3.69226Z" fill="#444CE7"/>
</g>
</svg>
